<svg width="195" height="17" viewBox="0 0 195 17" fill="none" xmlns="http://www.w3.org/2000/svg">
<line x1="145.5" y1="8.5" x2="194.5" y2="8.5" stroke="#D9D9D9" stroke-linecap="round"/>
<line x1="0.5" y1="8.5" x2="49.5" y2="8.5" stroke="#D9D9D9" stroke-linecap="round"/>
<path d="M61.312 12.077C60.6007 12.077 59.9443 11.912 59.343 11.582C58.749 11.2447 58.276 10.779 57.924 10.185C57.5793 9.58367 57.407 8.909 57.407 8.161C57.407 7.413 57.5793 6.742 57.924 6.148C58.276 5.554 58.749 5.092 59.343 4.762C59.9443 4.42467 60.6007 4.256 61.312 4.256C62.0307 4.256 62.687 4.42467 63.281 4.762C63.8823 5.092 64.3553 5.554 64.7 6.148C65.0447 6.742 65.217 7.413 65.217 8.161C65.217 8.909 65.0447 9.58367 64.7 10.185C64.3553 10.779 63.8823 11.2447 63.281 11.582C62.687 11.912 62.0307 12.077 61.312 12.077ZM61.312 10.988C61.818 10.988 62.269 10.8743 62.665 10.647C63.061 10.4123 63.369 10.0823 63.589 9.657C63.8163 9.22433 63.93 8.72567 63.93 8.161C63.93 7.59633 63.8163 7.10133 63.589 6.676C63.369 6.25067 63.061 5.92433 62.665 5.697C62.269 5.46967 61.818 5.356 61.312 5.356C60.806 5.356 60.355 5.46967 59.959 5.697C59.563 5.92433 59.2513 6.25067 59.024 6.676C58.804 7.10133 58.694 7.59633 58.694 8.161C58.694 8.72567 58.804 9.22433 59.024 9.657C59.2513 10.0823 59.563 10.4123 59.959 10.647C60.355 10.8743 60.806 10.988 61.312 10.988ZM67.705 6.819C67.8883 6.511 68.1303 6.27267 68.431 6.104C68.739 5.928 69.102 5.84 69.52 5.84V7.138H69.201C68.7096 7.138 68.3356 7.26267 68.079 7.512C67.8296 7.76133 67.705 8.194 67.705 8.81V12H66.451V5.939H67.705V6.819ZM76.0491 12.077C75.5357 12.077 75.0737 11.989 74.6631 11.813C74.2524 11.6297 73.9297 11.373 73.6951 11.043C73.4604 10.713 73.3431 10.328 73.3431 9.888H74.6851C74.7144 10.218 74.8427 10.4893 75.0701 10.702C75.3047 10.9147 75.6311 11.021 76.0491 11.021C76.4817 11.021 76.8191 10.9183 77.0611 10.713C77.3031 10.5003 77.4241 10.229 77.4241 9.899C77.4241 9.64233 77.3471 9.43333 77.1931 9.272C77.0464 9.11067 76.8594 8.986 76.6321 8.898C76.4121 8.81 76.1041 8.71467 75.7081 8.612C75.2094 8.48 74.8024 8.348 74.4871 8.216C74.1791 8.07667 73.9151 7.864 73.6951 7.578C73.4751 7.292 73.3651 6.91067 73.3651 6.434C73.3651 5.994 73.4751 5.609 73.6951 5.279C73.9151 4.949 74.2231 4.696 74.6191 4.52C75.0151 4.344 75.4734 4.256 75.9941 4.256C76.7347 4.256 77.3397 4.443 77.8091 4.817C78.2857 5.18367 78.5497 5.68967 78.6011 6.335H77.2151C77.1931 6.05633 77.0611 5.818 76.8191 5.62C76.5771 5.422 76.2581 5.323 75.8621 5.323C75.5027 5.323 75.2094 5.41467 74.9821 5.598C74.7547 5.78133 74.6411 6.04533 74.6411 6.39C74.6411 6.62467 74.7107 6.819 74.8501 6.973C74.9967 7.11967 75.1801 7.237 75.4001 7.325C75.6201 7.413 75.9207 7.50833 76.3021 7.611C76.8081 7.75033 77.2187 7.88967 77.5341 8.029C77.8567 8.16833 78.1281 8.38467 78.3481 8.678C78.5754 8.964 78.6891 9.349 78.6891 9.833C78.6891 10.2217 78.5827 10.5883 78.3701 10.933C78.1647 11.2777 77.8604 11.5563 77.4571 11.769C77.0611 11.9743 76.5917 12.077 76.0491 12.077ZM80.8068 5.136C80.5794 5.136 80.3888 5.059 80.2348 4.905C80.0808 4.751 80.0038 4.56033 80.0038 4.333C80.0038 4.10567 80.0808 3.915 80.2348 3.761C80.3888 3.607 80.5794 3.53 80.8068 3.53C81.0268 3.53 81.2138 3.607 81.3678 3.761C81.5218 3.915 81.5988 4.10567 81.5988 4.333C81.5988 4.56033 81.5218 4.751 81.3678 4.905C81.2138 5.059 81.0268 5.136 80.8068 5.136ZM81.4228 5.939V12H80.1688V5.939H81.4228ZM85.5111 5.84C85.9805 5.84 86.3948 5.93533 86.7541 6.126C87.1208 6.30933 87.4068 6.54033 87.6121 6.819V5.939H88.8771V12.099C88.8771 12.6563 88.7598 13.1513 88.5251 13.584C88.2905 14.024 87.9495 14.3687 87.5021 14.618C87.0621 14.8673 86.5341 14.992 85.9181 14.992C85.0968 14.992 84.4148 14.7977 83.8721 14.409C83.3295 14.0277 83.0215 13.507 82.9481 12.847H84.1911C84.2865 13.1623 84.4881 13.4153 84.7961 13.606C85.1115 13.804 85.4855 13.903 85.9181 13.903C86.4241 13.903 86.8311 13.749 87.1391 13.441C87.4545 13.133 87.6121 12.6857 87.6121 12.099V11.087C87.3995 11.373 87.1098 11.615 86.7431 11.813C86.3838 12.0037 85.9731 12.099 85.5111 12.099C84.9831 12.099 84.4991 11.967 84.0591 11.703C83.6265 11.4317 83.2818 11.0577 83.0251 10.581C82.7758 10.097 82.6511 9.55067 82.6511 8.942C82.6511 8.33333 82.7758 7.79433 83.0251 7.325C83.2818 6.85567 83.6265 6.49267 84.0591 6.236C84.4991 5.972 84.9831 5.84 85.5111 5.84ZM87.6121 8.964C87.6121 8.546 87.5241 8.183 87.3481 7.875C87.1795 7.567 86.9558 7.33233 86.6771 7.171C86.3985 7.00967 86.0978 6.929 85.7751 6.929C85.4525 6.929 85.1518 7.00967 84.8731 7.171C84.5945 7.325 84.3671 7.556 84.1911 7.864C84.0225 8.16467 83.9381 8.524 83.9381 8.942C83.9381 9.36 84.0225 9.72667 84.1911 10.042C84.3671 10.3573 84.5945 10.5993 84.8731 10.768C85.1591 10.9293 85.4598 11.01 85.7751 11.01C86.0978 11.01 86.3985 10.9293 86.6771 10.768C86.9558 10.6067 87.1795 10.372 87.3481 10.064C87.5241 9.74867 87.6121 9.382 87.6121 8.964ZM93.5822 5.84C94.0589 5.84 94.4842 5.939 94.8582 6.137C95.2396 6.335 95.5366 6.62833 95.7492 7.017C95.9619 7.40567 96.0682 7.875 96.0682 8.425V12H94.8252V8.612C94.8252 8.06933 94.6896 7.655 94.4182 7.369C94.1469 7.07567 93.7766 6.929 93.3072 6.929C92.8379 6.929 92.4639 7.07567 92.1852 7.369C91.9139 7.655 91.7782 8.06933 91.7782 8.612V12H90.5242V5.939H91.7782V6.632C91.9836 6.38267 92.2439 6.18833 92.5592 6.049C92.8819 5.90967 93.2229 5.84 93.5822 5.84ZM101.163 5.136C100.936 5.136 100.745 5.059 100.591 4.905C100.437 4.751 100.36 4.56033 100.36 4.333C100.36 4.10567 100.437 3.915 100.591 3.761C100.745 3.607 100.936 3.53 101.163 3.53C101.383 3.53 101.57 3.607 101.724 3.761C101.878 3.915 101.955 4.10567 101.955 4.333C101.955 4.56033 101.878 4.751 101.724 4.905C101.57 5.059 101.383 5.136 101.163 5.136ZM101.779 5.939V12H100.525V5.939H101.779ZM106.484 5.84C106.96 5.84 107.386 5.939 107.76 6.137C108.141 6.335 108.438 6.62833 108.651 7.017C108.863 7.40567 108.97 7.875 108.97 8.425V12H107.727V8.612C107.727 8.06933 107.591 7.655 107.32 7.369C107.048 7.07567 106.678 6.929 106.209 6.929C105.739 6.929 105.365 7.07567 105.087 7.369C104.815 7.655 104.68 8.06933 104.68 8.612V12H103.426V5.939H104.68V6.632C104.885 6.38267 105.145 6.18833 105.461 6.049C105.783 5.90967 106.124 5.84 106.484 5.84ZM123.382 4.355L121.116 12H119.697L118.091 6.214L116.386 12L114.978 12.011L112.811 4.355H114.142L115.726 10.581L117.442 4.355H118.85L120.445 10.548L122.04 4.355H123.382ZM125.054 5.136C124.826 5.136 124.636 5.059 124.482 4.905C124.328 4.751 124.251 4.56033 124.251 4.333C124.251 4.10567 124.328 3.915 124.482 3.761C124.636 3.607 124.826 3.53 125.054 3.53C125.274 3.53 125.461 3.607 125.615 3.761C125.769 3.915 125.846 4.10567 125.846 4.333C125.846 4.56033 125.769 4.751 125.615 4.905C125.461 5.059 125.274 5.136 125.054 5.136ZM125.67 5.939V12H124.416V5.939H125.67ZM128.779 6.962V10.317C128.779 10.5443 128.831 10.7093 128.933 10.812C129.043 10.9073 129.227 10.955 129.483 10.955H130.253V12H129.263C128.699 12 128.266 11.868 127.965 11.604C127.665 11.34 127.514 10.911 127.514 10.317V6.962H126.799V5.939H127.514V4.432H128.779V5.939H130.253V6.962H128.779ZM134.544 5.84C135.006 5.84 135.417 5.939 135.776 6.137C136.143 6.335 136.429 6.62833 136.634 7.017C136.847 7.40567 136.953 7.875 136.953 8.425V12H135.71V8.612C135.71 8.06933 135.574 7.655 135.303 7.369C135.032 7.07567 134.661 6.929 134.192 6.929C133.723 6.929 133.349 7.07567 133.07 7.369C132.799 7.655 132.663 8.06933 132.663 8.612V12H131.409V3.86H132.663V6.643C132.876 6.38633 133.143 6.18833 133.466 6.049C133.796 5.90967 134.155 5.84 134.544 5.84Z" fill="#D9D9D9"/>
</svg>
